<svg xmlns:inkscape="http://www.inkscape.org/namespaces/inkscape" xmlns:sodipodi="http://sodipodi.sourceforge.net/DTD/sodipodi-0.dtd" xmlns="http://www.w3.org/2000/svg" xmlns:svg="http://www.w3.org/2000/svg" width="71.999649mm" height="14.09095mm" viewBox="0 0 71.999649 14.09095" id="svg1" xml:space="preserve" inkscape:version="1.3 (0e150ed, 2023-07-21)" sodipodi:docname="solarelogo.svg"><defs id="defs1"><clipPath clipPathUnits="userSpaceOnUse" id="clipPath2"><path d="M 0,259.2 H 460.8 V 0 H 0 Z" transform="translate(-145.98141,-140.2027)" id="path2"></path></clipPath><clipPath clipPathUnits="userSpaceOnUse" id="clipPath4"><path d="M 0,259.2 H 460.8 V 0 H 0 Z" transform="translate(-329.26591,-148.26981)" id="path4"></path></clipPath><clipPath clipPathUnits="userSpaceOnUse" id="clipPath8"><path d="M 0,259.2 H 460.8 V 0 H 0 Z" transform="translate(-145.9812,-142.54731)" id="path8"></path></clipPath><clipPath clipPathUnits="userSpaceOnUse" id="clipPath10"><path d="M 0,259.2 H 460.8 V 0 H 0 Z" transform="translate(-329.26568,-150.6145)" id="path10"></path></clipPath></defs><g inkscape:label="Layer 1" inkscape:groupmode="layer" id="layer1" transform="translate(-265.28025,-39.133708)"></g><g id="layer-MC0" inkscape:groupmode="layer" inkscape:label="Layer 1" transform="matrix(0.26458333,0,0,0.26458334,-45.280239,-39.133708)"><path id="path1" d="m 0,0 c 0.159,0.629 0.135,1.182 -0.069,1.661 -0.205,0.478 -0.71,0.717 -1.516,0.717 -0.714,0 -1.304,-0.219 -1.77,-0.656 -0.467,-0.437 -0.777,-0.957 -0.928,-1.558 -0.249,-0.984 -0.101,-1.749 0.443,-2.296 0.544,-0.546 1.278,-1.018 2.201,-1.414 0.923,-0.397 1.939,-0.793 3.048,-1.189 1.109,-0.397 2.092,-0.923 2.95,-1.579 0.857,-0.655 1.493,-1.517 1.906,-2.582 0.413,-1.067 0.398,-2.474 -0.043,-4.223 -0.428,-1.695 -1.026,-3.144 -1.795,-4.346 -0.768,-1.203 -1.738,-2.187 -2.907,-2.952 -1.17,-0.765 -2.575,-1.326 -4.215,-1.681 -1.639,-0.355 -3.529,-0.533 -5.668,-0.533 -1.767,0 -3.305,0.144 -4.612,0.431 -1.307,0.287 -2.341,0.765 -3.102,1.435 -0.761,0.669 -1.244,1.551 -1.448,2.644 -0.205,1.093 -0.104,2.446 0.303,4.059 l 0.197,0.779 h 9.022 l -0.342,-1.353 c -0.179,-0.711 -0.147,-1.319 0.098,-1.825 0.244,-0.505 0.769,-0.758 1.575,-0.758 0.868,0 1.534,0.273 1.998,0.82 0.463,0.547 0.774,1.134 0.933,1.763 0.117,0.465 0.167,0.847 0.15,1.148 -0.017,0.3 -0.093,0.553 -0.227,0.758 -0.134,0.205 -0.306,0.383 -0.516,0.533 -0.21,0.15 -0.434,0.308 -0.672,0.472 -0.544,0.3 -1.181,0.601 -1.911,0.901 -0.731,0.301 -1.466,0.643 -2.206,1.026 -1.134,0.546 -2.063,1.072 -2.788,1.578 -0.724,0.506 -1.273,1.066 -1.645,1.681 -0.371,0.615 -0.568,1.312 -0.588,2.091 -0.02,0.779 0.107,1.715 0.384,2.808 0.517,2.05 1.242,3.663 2.174,4.838 0.932,1.175 2.027,2.105 3.285,2.788 0.93,0.492 2.037,0.915 3.32,1.271 1.283,0.355 2.855,0.533 4.715,0.533 C 2.09,7.79 3.921,7.55 5.227,7.072 6.532,6.594 7.476,5.945 8.06,5.125 8.643,4.305 8.931,3.355 8.922,2.275 8.913,1.196 8.753,0.041 8.443,-1.189 H -0.3 Z m 17.28,-10.947 c -0.324,-1.284 -0.562,-2.35 -0.714,-3.197 -0.152,-0.848 -0.22,-1.517 -0.205,-2.009 0.015,-0.492 0.131,-0.834 0.346,-1.025 0.215,-0.192 0.524,-0.287 0.927,-0.287 0.403,0 0.761,0.095 1.073,0.287 0.311,0.191 0.599,0.533 0.863,1.025 0.263,0.492 0.533,1.161 0.809,2.009 0.276,0.847 0.576,1.913 0.9,3.197 0.325,1.285 0.563,2.351 0.715,3.198 0.151,0.848 0.22,1.517 0.204,2.009 -0.015,0.492 -0.13,0.834 -0.345,1.025 -0.216,0.192 -0.525,0.287 -0.928,0.287 -0.403,0 -0.76,-0.095 -1.072,-0.287 -0.312,-0.191 -0.6,-0.533 -0.863,-1.025 -0.264,-0.492 -0.534,-1.161 -0.81,-2.009 -0.276,-0.847 -0.576,-1.913 -0.9,-3.198 m 4.939,11.644 c 2.48,0 4.369,-0.314 5.668,-0.943 1.298,-0.629 2.193,-1.476 2.683,-2.542 0.491,-1.066 0.667,-2.302 0.529,-3.71 -0.139,-1.408 -0.405,-2.891 -0.798,-4.449 -0.393,-1.558 -0.878,-3.047 -1.453,-4.468 -0.576,-1.422 -1.378,-2.665 -2.407,-3.731 -1.029,-1.066 -2.351,-1.913 -3.966,-2.542 -1.616,-0.629 -3.665,-0.943 -6.145,-0.943 -2.48,0 -4.369,0.314 -5.668,0.943 -1.298,0.629 -2.193,1.476 -2.683,2.542 -0.49,1.066 -0.665,2.309 -0.523,3.731 0.141,1.421 0.409,2.91 0.802,4.468 0.394,1.558 0.876,3.041 1.449,4.449 0.572,1.408 1.372,2.644 2.401,3.71 1.029,1.066 2.351,1.913 3.967,2.542 1.616,0.629 3.664,0.943 6.144,0.943 m 14.76,6.519 H 46 L 38.611,-22.057 H 29.59 Z m 25.433,-25.993 c -0.297,-1.175 -0.294,-2.269 0.009,-3.28 h -8.463 c -0.059,0.383 -0.069,0.772 -0.031,1.169 0.038,0.396 0.105,0.785 0.202,1.168 l -0.083,0.041 c -0.803,-1.093 -1.786,-1.859 -2.951,-2.296 -1.164,-0.437 -2.398,-0.656 -3.7,-0.656 -2.418,0 -4.022,0.554 -4.813,1.661 -0.79,1.107 -0.912,2.74 -0.367,4.899 0.31,1.23 0.724,2.255 1.241,3.075 0.517,0.82 1.104,1.489 1.763,2.009 0.658,0.519 1.395,0.922 2.212,1.209 0.816,0.287 1.664,0.512 2.542,0.676 l 4.403,0.861 c 0.978,0.192 1.693,0.445 2.144,0.759 0.452,0.314 0.767,0.826 0.947,1.537 0.138,0.547 0.082,0.97 -0.168,1.271 -0.25,0.301 -0.623,0.451 -1.119,0.451 -0.465,0 -0.863,-0.075 -1.196,-0.225 -0.332,-0.151 -0.605,-0.342 -0.819,-0.574 -0.213,-0.233 -0.382,-0.499 -0.504,-0.8 -0.123,-0.3 -0.225,-0.615 -0.308,-0.943 h -7.952 c 0.635,2.515 1.898,4.387 3.797,5.617 1.892,1.23 4.644,1.845 8.247,1.845 2.054,0 3.678,-0.171 4.886,-0.512 1.2,-0.342 2.091,-0.807 2.671,-1.395 0.588,-0.587 0.904,-1.27 0.955,-2.049 0.051,-0.779 -0.03,-1.593 -0.244,-2.44 z m -6.301,7.462 c -0.321,-0.164 -0.675,-0.308 -1.062,-0.431 -0.388,-0.123 -0.85,-0.266 -1.388,-0.43 -0.806,-0.247 -1.372,-0.615 -1.697,-1.107 -0.326,-0.492 -0.572,-1.066 -0.737,-1.722 -0.166,-0.656 -0.153,-1.189 0.038,-1.599 0.191,-0.41 0.596,-0.615 1.217,-0.615 0.433,0 0.811,0.082 1.131,0.246 0.32,0.164 0.591,0.376 0.812,0.635 0.22,0.26 0.401,0.547 0.542,0.861 0.142,0.315 0.254,0.636 0.337,0.964 z M 70.206,0.123 h 8.742 l -0.828,-3.28 h 0.094 c 0.703,1.066 1.622,1.975 2.757,2.726 1.135,0.752 2.323,1.128 3.563,1.128 0.496,0 0.834,-0.014 1.013,-0.041 0.179,-0.027 0.342,-0.055 0.491,-0.082 l -1.832,-7.257 c -0.334,0.027 -0.696,0.069 -1.085,0.123 -0.148,0.028 -0.377,0.042 -0.687,0.042 h -1.023 c -1.55,0 -2.669,-0.349 -3.357,-1.046 -0.687,-0.697 -1.197,-1.702 -1.528,-3.013 l -2.898,-11.48 H 64.607 Z M 100.681,0 c 0.159,0.629 0.136,1.182 -0.069,1.661 -0.205,0.478 -0.71,0.717 -1.516,0.717 -0.713,0 -1.303,-0.219 -1.77,-0.656 -0.467,-0.437 -0.777,-0.957 -0.928,-1.558 -0.249,-0.984 -0.101,-1.749 0.443,-2.296 0.544,-0.546 1.278,-1.018 2.201,-1.414 0.923,-0.397 1.939,-0.793 3.048,-1.189 1.109,-0.397 2.092,-0.923 2.95,-1.579 0.858,-0.655 1.493,-1.517 1.905,-2.582 0.414,-1.067 0.399,-2.474 -0.042,-4.223 -0.428,-1.695 -1.026,-3.144 -1.795,-4.346 -0.768,-1.203 -1.738,-2.187 -2.907,-2.952 -1.17,-0.765 -2.575,-1.326 -4.215,-1.681 -1.64,-0.355 -3.529,-0.533 -5.668,-0.533 -1.767,0 -3.304,0.144 -4.612,0.431 -1.307,0.287 -2.341,0.765 -3.102,1.435 -0.761,0.669 -1.244,1.551 -1.448,2.644 -0.205,1.093 -0.104,2.446 0.303,4.059 l 0.197,0.779 h 9.022 l -0.342,-1.353 c -0.179,-0.711 -0.147,-1.319 0.098,-1.825 0.244,-0.505 0.77,-0.758 1.575,-0.758 0.869,0 1.534,0.273 1.998,0.82 0.463,0.547 0.774,1.134 0.933,1.763 0.117,0.465 0.168,0.847 0.15,1.148 -0.017,0.3 -0.092,0.553 -0.227,0.758 -0.134,0.205 -0.306,0.383 -0.516,0.533 -0.21,0.15 -0.434,0.308 -0.672,0.472 -0.544,0.3 -1.181,0.601 -1.911,0.901 -0.73,0.301 -1.466,0.643 -2.206,1.026 -1.133,0.546 -2.063,1.072 -2.787,1.578 -0.725,0.506 -1.274,1.066 -1.646,1.681 -0.371,0.615 -0.567,1.312 -0.588,2.091 -0.02,0.779 0.108,1.715 0.384,2.808 0.517,2.05 1.242,3.663 2.174,4.838 0.932,1.175 2.027,2.105 3.285,2.788 0.93,0.492 2.037,0.915 3.32,1.271 1.284,0.355 2.855,0.533 4.715,0.533 2.356,0 4.187,-0.24 5.493,-0.718 1.305,-0.478 2.25,-1.127 2.833,-1.947 0.584,-0.82 0.871,-1.77 0.862,-2.85 -0.009,-1.079 -0.169,-2.234 -0.479,-3.464 h -8.743 z m 22.412,-7.38 c 0.214,0.848 0.212,1.422 -0.007,1.722 -0.218,0.301 -0.622,0.451 -1.211,0.451 -0.62,0 -1.129,-0.205 -1.527,-0.615 -0.398,-0.41 -0.677,-0.929 -0.835,-1.558 l -3.705,-14.677 h -9.022 l 7.389,29.273 h 9.022 l -2.432,-9.635 h 0.093 c 0.958,1.093 2.041,1.886 3.251,2.378 1.209,0.492 2.511,0.738 3.906,0.738 0.807,0 1.556,-0.103 2.248,-0.308 0.692,-0.204 1.261,-0.532 1.705,-0.983 0.444,-0.451 0.747,-1.032 0.909,-1.743 0.161,-0.711 0.114,-1.571 -0.141,-2.583 l -4.326,-17.137 h -9.021 z m 19.004,-3.567 c -0.324,-1.284 -0.563,-2.35 -0.714,-3.197 -0.152,-0.848 -0.221,-1.517 -0.205,-2.009 0.015,-0.492 0.13,-0.834 0.346,-1.025 0.215,-0.192 0.524,-0.287 0.927,-0.287 0.403,0 0.761,0.095 1.072,0.287 0.312,0.191 0.6,0.533 0.864,1.025 0.263,0.492 0.533,1.161 0.809,2.009 0.276,0.847 0.576,1.913 0.9,3.197 0.324,1.285 0.563,2.351 0.715,3.198 0.151,0.848 0.22,1.517 0.204,2.009 -0.015,0.492 -0.13,0.834 -0.346,1.025 -0.215,0.192 -0.524,0.287 -0.927,0.287 -0.403,0 -0.76,-0.095 -1.072,-0.287 -0.312,-0.191 -0.6,-0.533 -0.864,-1.025 -0.263,-0.492 -0.533,-1.161 -0.809,-2.009 -0.276,-0.847 -0.576,-1.913 -0.9,-3.198 m 4.939,11.644 c 2.48,0 4.369,-0.314 5.668,-0.943 1.298,-0.629 2.192,-1.476 2.683,-2.542 0.49,-1.066 0.667,-2.302 0.529,-3.71 -0.139,-1.408 -0.405,-2.891 -0.798,-4.449 -0.393,-1.558 -0.878,-3.047 -1.453,-4.468 -0.576,-1.422 -1.378,-2.665 -2.407,-3.731 -1.029,-1.066 -2.351,-1.913 -3.967,-2.542 -1.616,-0.629 -3.664,-0.943 -6.144,-0.943 -2.48,0 -4.369,0.314 -5.668,0.943 -1.298,0.629 -2.193,1.476 -2.683,2.542 -0.491,1.066 -0.665,2.309 -0.523,3.731 0.141,1.421 0.409,2.91 0.802,4.468 0.393,1.558 0.876,3.041 1.449,4.449 0.572,1.408 1.372,2.644 2.401,3.71 1.028,1.066 2.351,1.913 3.966,2.542 1.616,0.629 3.664,0.943 6.145,0.943 m 22.906,-11.684 c 0.532,2.104 0.791,3.594 0.78,4.469 -0.012,0.874 -0.467,1.311 -1.367,1.311 -0.899,0 -1.575,-0.437 -2.028,-1.311 -0.453,-0.875 -0.946,-2.365 -1.477,-4.469 -0.524,-2.078 -0.781,-3.554 -0.769,-4.428 0.012,-0.875 0.467,-1.312 1.366,-1.312 0.899,0 1.576,0.437 2.029,1.312 0.453,0.874 0.942,2.35 1.466,4.428 m -10.17,11.11 h 8.883 l -0.642,-2.542 h 0.093 c 0.162,0.274 0.381,0.588 0.657,0.943 0.275,0.356 0.64,0.697 1.095,1.025 0.455,0.328 1.02,0.601 1.695,0.82 0.676,0.219 1.509,0.328 2.501,0.328 1.303,0 2.358,-0.178 3.168,-0.533 0.809,-0.355 1.434,-0.827 1.875,-1.414 0.441,-0.588 0.714,-1.285 0.82,-2.091 0.107,-0.807 0.118,-1.654 0.033,-2.542 -0.084,-0.888 -0.229,-1.797 -0.432,-2.727 -0.204,-0.929 -0.416,-1.831 -0.636,-2.705 -0.394,-1.558 -0.85,-3.027 -1.369,-4.408 -0.519,-1.38 -1.171,-2.583 -1.957,-3.608 -0.786,-1.025 -1.726,-1.831 -2.82,-2.418 -1.093,-0.588 -2.431,-0.882 -4.012,-0.882 -1.209,0 -2.264,0.273 -3.165,0.82 -0.9,0.547 -1.44,1.326 -1.619,2.337 h -0.093 l -2.473,-9.798 h -9.022 z" style="fill:#f25c19;fill-opacity:1;fill-rule:evenodd;stroke:none" transform="matrix(1.3333333,0,0,-1.3333333,194.64187,158.66307)" clip-path="url(#clipPath2)"></path><path id="path3" d="M 0,0 C 0.534,0 1.056,-0.137 1.566,-0.412 2.074,-0.685 2.471,-1.079 2.755,-1.589 3.039,-2.1 3.181,-2.633 3.181,-3.186 3.181,-3.734 3.042,-4.263 2.761,-4.768 2.482,-5.275 2.09,-5.668 1.584,-5.948 1.079,-6.229 0.55,-6.368 0,-6.368 c -0.552,0 -1.08,0.139 -1.586,0.42 -0.505,0.28 -0.898,0.673 -1.179,1.18 -0.281,0.505 -0.422,1.034 -0.422,1.582 0,0.553 0.142,1.086 0.428,1.597 0.286,0.51 0.684,0.904 1.192,1.177 C -1.057,-0.137 -0.536,0 0,0 m 0,-0.527 c -0.448,0 -0.884,-0.115 -1.308,-0.344 -0.423,-0.229 -0.755,-0.558 -0.993,-0.984 -0.239,-0.426 -0.359,-0.87 -0.359,-1.331 0,-0.459 0.118,-0.898 0.353,-1.319 0.235,-0.421 0.563,-0.749 0.985,-0.983 C -0.9,-5.723 -0.46,-5.841 0,-5.841 c 0.458,0 0.899,0.118 1.321,0.353 0.422,0.234 0.75,0.562 0.983,0.983 0.234,0.421 0.35,0.86 0.35,1.319 0,0.461 -0.119,0.905 -0.357,1.331 C 2.059,-1.429 1.728,-1.1 1.303,-0.871 0.879,-0.642 0.444,-0.527 0,-0.527 m -1.398,-4.416 v 3.422 h 1.178 c 0.403,0 0.694,-0.032 0.874,-0.095 0.181,-0.063 0.324,-0.173 0.432,-0.331 0.107,-0.157 0.16,-0.324 0.16,-0.501 0,-0.249 -0.089,-0.468 -0.269,-0.653 C 0.798,-3.286 0.56,-3.39 0.264,-3.413 0.385,-3.464 0.483,-3.524 0.555,-3.595 0.693,-3.728 0.861,-3.955 1.061,-4.273 l 0.418,-0.67 H 0.808 l -0.305,0.539 c -0.239,0.425 -0.434,0.691 -0.581,0.798 -0.101,0.078 -0.247,0.117 -0.442,0.115 h -0.325 v -1.452 z m 0.553,1.927 h 0.671 c 0.321,0 0.54,0.048 0.657,0.143 0.116,0.095 0.175,0.222 0.175,0.377 0,0.101 -0.029,0.192 -0.085,0.271 -0.056,0.081 -0.134,0.14 -0.233,0.179 -0.101,0.038 -0.285,0.059 -0.556,0.059 h -0.629 z" style="fill:#f25c19;fill-opacity:1;fill-rule:nonzero;stroke:none" transform="matrix(1.3333333,0,0,-1.3333333,439.0212,147.90693)" clip-path="url(#clipPath4)"></path><path id="path5" d="M 0.57323125,2.15625e-4 V -5.6950969 H 2.5302625 c 0.6386719,0 1.1279297,0.1289063 1.4648437,0.3867188 0.3339844,0.2578125 0.5039063,0.6445312 0.5039063,1.1601562 0,0.2578125 -0.070312,0.4921875 -0.2109375,0.703125 -0.140625,0.2109375 -0.3486328,0.3720703 -0.6210938,0.4804688 0.3105469,0.087891 0.5507813,0.2460937 0.7148438,0.4804687 0.1699219,0.2285157 0.2578125,0.5009766 0.2578125,0.8203125 0,0.5390625 -0.1728516,0.95507815 -0.515625,1.24218753 C 3.7783094,-0.14040937 3.2861219,2.15625e-4 2.64745,2.15625e-4 Z M 1.569325,-2.5661906 v 1.78124998 h 1.0898437 c 0.3105469,0 0.553711,-0.0761719 0.7265625,-0.23437498 0.178711,-0.1552735 0.2695313,-0.3691406 0.2695313,-0.6445313 0,-0.5859375 -0.3046875,-0.8847656 -0.9140625,-0.9023437 z m 0,-0.7265625 h 0.9609375 c 0.3105469,0 0.5537109,-0.070312 0.7265625,-0.2109375 0.1699219,-0.140625 0.2578125,-0.3398438 0.2578125,-0.5976563 0,-0.28125 -0.082031,-0.4833984 -0.2460938,-0.609375 -0.1582031,-0.1230468 -0.4042968,-0.1875 -0.7382812,-0.1875 H 1.569325 Z m 11.800781,0.5976562 c 0,0.5566407 -0.09961,1.0429688 -0.292969,1.4648438 -0.1875,0.42187498 -0.46289,0.74707029 -0.820312,0.97265623 -0.360352,0.22851562 -0.773438,0.33984375 -1.242188,0.33984375 -0.46289,0 -0.873046,-0.11132813 -1.2304683,-0.33984375 C 9.4238172,-0.48318281 9.1425672,-0.80251875 8.9404187,-1.2185344 8.7441297,-1.6404094 8.64745,-2.1208781 8.64745,-2.6599406 v -0.328125 c 0,-0.553711 0.09668,-1.0429688 0.2929687,-1.4648438 0.1933594,-0.4277343 0.4716797,-0.7529297 0.8320313,-0.9726562 0.357422,-0.225586 0.767578,-0.3398438 1.230469,-0.3398438 0.46875,0 0.881836,0.1142578 1.242187,0.3398438 0.357422,0.2197265 0.635742,0.5390625 0.832031,0.9609375 0.19336,0.4160156 0.292969,0.899414 0.292969,1.453125 z m -0.984375,-0.2929687 c 0,-0.6328125 -0.123047,-1.116211 -0.363281,-1.453125 -0.243164,-0.3339844 -0.583008,-0.5039063 -1.019531,-0.5039063 -0.421875,0 -0.75586,0.1699219 -0.996094,0.5039063 -0.2431641,0.336914 -0.3691406,0.8085937 -0.375,1.4179687 v 0.328125 c 0,0.6269532 0.1201172,1.1103516 0.3632812,1.453125 0.2490238,0.33691409 0.5888668,0.50390628 1.0195308,0.50390628 0.436524,0 0.773438,-0.1640625 1.007813,-0.49218748 0.240234,-0.3339844 0.363281,-0.8232422 0.363281,-1.4648438 z m 8.132813,1.5234375 c 0,-0.2490235 -0.09082,-0.4394531 -0.269532,-0.5742188 -0.172851,-0.140625 -0.489257,-0.2753906 -0.949218,-0.4101562 -0.454102,-0.140625 -0.817383,-0.2958985 -1.089844,-0.46875 -0.515625,-0.319336 -0.773438,-0.7441406 -0.773438,-1.2773438 0,-0.4511718 0.181641,-0.8261718 0.550782,-1.125 0.375,-0.2958984 0.861328,-0.4453125 1.464843,-0.4453125 0.389649,0 0.741211,0.076172 1.054688,0.2226563 0.310547,0.140625 0.553711,0.3486328 0.726562,0.6210937 0.178711,0.2666016 0.269532,0.5625 0.269532,0.890625 h -0.984375 c 0,-0.2958984 -0.09375,-0.5273437 -0.28125,-0.6914062 -0.1875,-0.1699219 -0.454102,-0.2578125 -0.796875,-0.2578125 -0.322266,0 -0.571289,0.070312 -0.75,0.2109375 -0.181641,0.1347656 -0.269532,0.3251953 -0.269532,0.5742187 0,0.2109375 0.09375,0.3867188 0.28125,0.5273438 0.19336,0.140625 0.515625,0.2783203 0.960938,0.4101562 0.445312,0.1259766 0.799805,0.2753907 1.066406,0.4453125 0.272461,0.1640625 0.47168,0.3574219 0.597656,0.5742188 0.123047,0.2197265 0.1875,0.4746094 0.1875,0.7617187 0,0.47753909 -0.18457,0.85546878 -0.550781,1.13671878 -0.36914,0.28125 -0.861328,0.421875 -1.476562,0.421875 -0.416016,0 -0.793946,-0.07617188 -1.136719,-0.22265625 -0.345703,-0.15527344 -0.615234,-0.36621094 -0.808594,-0.6328125 -0.1875,-0.27246093 -0.28125,-0.58886723 -0.28125,-0.94921873 h 0.984375 c 0,0.328125 0.105469,0.5830078 0.316406,0.76171873 0.216797,0.17285156 0.527344,0.2578125 0.925782,0.2578125 0.342773,0 0.600586,-0.0703125 0.773437,-0.2109375 0.169922,-0.14062503 0.257813,-0.32226563 0.257813,-0.55078123 z M 30.092762,2.15625e-4 H 29.096669 L 26.565419,-4.0427531 V 2.15625e-4 H 25.569325 V -5.6950969 h 0.996094 l 2.542968,4.0546875 v -4.0546875 h 0.984375 z M 37.70702,-1.3240031 H 35.503895 L 35.046864,2.15625e-4 h -1.03125 L 36.160145,-5.6950969 h 0.890625 l 2.15625,5.695312525 h -1.03125 z m -1.921875,-0.796875 h 1.640625 l -0.820312,-2.3671875 z m 12.216797,0.5859375 c 0,-0.2636719 0.07031,-0.506836 0.210938,-0.7265625 0.140625,-0.2167969 0.421875,-0.4804688 0.84375,-0.7851563 -0.219727,-0.2724609 -0.372071,-0.5068359 -0.457032,-0.703125 -0.08789,-0.2021484 -0.128906,-0.3925781 -0.128906,-0.5742187 0,-0.4453125 0.131836,-0.796875 0.398438,-1.0546875 0.272461,-0.2578125 0.638672,-0.3867188 1.101562,-0.3867188 0.413086,0 0.75,0.1230469 1.007813,0.3632813 0.263672,0.243164 0.398437,0.5449219 0.398437,0.9023437 0,0.234375 -0.05859,0.4541016 -0.175781,0.65625 -0.117188,0.2050782 -0.313477,0.4042969 -0.585938,0.5976563 l -0.386718,0.28125 1.089843,1.3007812 c 0.164063,-0.3105468 0.246094,-0.6591797 0.246094,-1.0429687 h 0.820313 c 0,0.6972656 -0.164063,1.2714844 -0.492188,1.72265623 l 0.84375,0.984374995 H 51.623036 L 51.30663,-0.37478437 c -0.407227,0.3046875 -0.890625,0.45703125 -1.453125,0.45703125 -0.5625,0 -1.013672,-0.14648438 -1.347657,-0.4453125 -0.336914,-0.3046875 -0.503906,-0.69433598 -0.503906,-1.17187498 z m 1.875,0.85546873 c 0.319336,0 0.621094,-0.10546875 0.902344,-0.31640625 l -1.242188,-1.46484378 -0.117187,0.082031 c -0.313477,0.234375 -0.46875,0.5039062 -0.46875,0.8085937 0,0.2666016 0.08203,0.4804688 0.246094,0.64453128 0.169922,0.1640625 0.398437,0.24609375 0.679687,0.24609405 z M 49.361317,-4.3474406 c 0,0.2197265 0.131836,0.4980469 0.398438,0.8320312 l 0.433593,-0.3046875 0.117188,-0.09375 c 0.164062,-0.1464843 0.246094,-0.3310547 0.246094,-0.5507812 0,-0.1464844 -0.05859,-0.272461 -0.175782,-0.375 -0.111328,-0.1083985 -0.251953,-0.1640625 -0.421875,-0.1640625 -0.18164,0 -0.325195,0.064453 -0.433593,0.1875 -0.111328,0.1259765 -0.164063,0.28125 -0.164063,0.46875 z M 66.262684,2.15625e-4 H 65.278309 V -2.5310344 H 62.735341 V 2.15625e-4 H 61.739247 V -5.6950969 h 0.996094 v 2.3789063 h 2.542968 v -2.3789063 h 0.984375 z m 7.6875,-2.542968725 h -2.332031 v 1.75781248 h 2.730469 V 2.15625e-4 H 70.622059 V -5.6950969 h 3.703125 v 0.796875 h -2.707031 v 1.5820313 h 2.332031 z m 6.489258,0.3515625 H 79.33788 V 2.15625e-4 H 78.341786 V -5.6950969 h 2.003906 c 0.65625,0 1.163086,0.1494141 1.523438,0.4453125 0.357422,0.2988282 0.539062,0.7236328 0.539062,1.2773438 0,0.383789 -0.09375,0.703125 -0.28125,0.9609375 -0.18164,0.2578125 -0.439453,0.4541015 -0.773437,0.5859375 l 1.289062,2.37890623 V 2.15625e-4 h -1.066406 z m -1.101562,-0.796875 h 1.007812 c 0.333985,0 0.597656,-0.082031 0.785156,-0.2460938 0.1875,-0.1699218 0.28125,-0.4013672 0.28125,-0.6914062 0,-0.3046875 -0.08789,-0.5390625 -0.257812,-0.703125 -0.172852,-0.1699219 -0.430664,-0.2607422 -0.773438,-0.2695313 H 79.33788 Z m 11.542968,1.1367187 c -0.05566,0.609375 -0.28125,1.08691409 -0.679687,1.42968753 -0.392578,0.33691406 -0.911133,0.50390625 -1.558594,0.50390625 -0.454101,0 -0.852539,-0.10546875 -1.195312,-0.31640625 -0.345703,-0.21679688 -0.609375,-0.52734375 -0.796875,-0.92578123 -0.1875,-0.3984375 -0.28711,-0.8583985 -0.292969,-1.3828125 v -0.5273438 c 0,-0.5390625 0.09375,-1.0107422 0.28125,-1.4179687 0.193359,-0.413086 0.46875,-0.7294922 0.820312,-0.9492188 0.357422,-0.2167968 0.767579,-0.328125 1.230469,-0.328125 0.632813,0 1.139649,0.1728516 1.523438,0.515625 0.380859,0.3369141 0.603515,0.8173828 0.667968,1.4414063 h -0.984375 c -0.04687,-0.413086 -0.169921,-0.7089844 -0.363281,-0.890625 -0.1875,-0.178711 -0.46875,-0.2695313 -0.84375,-0.2695313 -0.430664,0 -0.761719,0.1582032 -0.996094,0.46875 -0.228515,0.3134766 -0.339843,0.7734375 -0.339843,1.3828125 v 0.5039063 c 0,0.618164 0.108398,1.0898437 0.328125,1.4179687 0.216797,0.32226565 0.539062,0.48046878 0.960937,0.48046878 0.389649,0 0.682617,-0.0849609 0.878906,-0.2578125 0.19336,-0.17871098 0.319336,-0.47167968 0.375,-0.87890628 z m 7.403321,-0.6914062 h -2.332032 v 1.75781248 h 2.730469 V 2.15625e-4 H 94.956044 V -5.6950969 h 3.703125 v 0.796875 h -2.707032 v 1.5820313 h 2.332032 z m 8.762691,1.80468748 c -0.21093,0.26660156 -0.50097,0.46875 -0.86718,0.609375 -0.36036,0.140625 -0.77344,0.2109375 -1.24219,0.2109375 -0.47754,0 -0.89942,-0.10839844 -1.26563,-0.328125 -0.36914,-0.21679688 -0.65332,-0.52734375 -0.85546,-0.92578128 -0.19629,-0.4042968 -0.29883,-0.8730468 -0.30469,-1.40625 v -0.4453125 c 0,-0.8671875 0.20508,-1.5380859 0.62109,-2.015625 0.41309,-0.4833984 0.98731,-0.7265625 1.72266,-0.7265625 0.63281,0 1.13672,0.1582032 1.51172,0.46875 0.375,0.3134766 0.59765,0.7617188 0.66797,1.3476563 h -0.97266 c -0.11133,-0.6855469 -0.50391,-1.03125 -1.18359,-1.03125 -0.44532,0 -0.78516,0.1611328 -1.01954,0.4804687 -0.22851,0.3222657 -0.3457,0.7910157 -0.35156,1.40625 v 0.4453125 c 0,0.609375 0.12891,1.0869141 0.38672,1.4296875 0.25781,0.33691409 0.61523,0.50390628 1.07813,0.50390628 0.50683,0 0.86718,-0.11132813 1.07812,-0.33984378 v -1.1132812 h -1.17187 v -0.75 h 2.16796 z m 8.82422,-1.95703128 c 0,0.5566407 -0.0996,1.0429688 -0.29297,1.4648438 -0.1875,0.42187498 -0.46289,0.74707029 -0.82031,0.97265623 -0.36035,0.22851562 -0.77344,0.33984375 -1.24219,0.33984375 -0.46289,0 -0.87304,-0.11132813 -1.23046,-0.33984375 -0.36036,-0.22558594 -0.64161,-0.54492188 -0.84375,-0.96093753 -0.19629,-0.421875 -0.29297,-0.9023437 -0.29297,-1.4414062 v -0.328125 c 0,-0.553711 0.0967,-1.0429688 0.29297,-1.4648438 0.19335,-0.4277343 0.47167,-0.7529297 0.83203,-0.9726562 0.35742,-0.225586 0.76757,-0.3398438 1.23047,-0.3398438 0.46875,0 0.88183,0.1142578 1.24218,0.3398438 0.35742,0.2197265 0.63574,0.5390625 0.83203,0.9609375 0.19336,0.4160156 0.29297,0.899414 0.29297,1.453125 z m -0.98437,-0.2929687 c 0,-0.6328125 -0.12305,-1.116211 -0.36328,-1.453125 -0.24317,-0.3339844 -0.58301,-0.5039063 -1.01953,-0.5039063 -0.42188,0 -0.75586,0.1699219 -0.9961,0.5039063 -0.24316,0.336914 -0.36914,0.8085937 -0.375,1.4179687 v 0.328125 c 0,0.6269532 0.12012,1.1103516 0.36328,1.453125 0.24903,0.33691409 0.58887,0.50390628 1.01953,0.50390628 0.43653,0 0.77344,-0.1640625 1.00782,-0.49218748 0.24023,-0.3339844 0.36328,-0.8232422 0.36328,-1.4648438 z m 7.07812,1.7460937 1.45313,-4.453125 h 1.08984 l -2.05078,5.695312525 h -0.96094 L 119.45702,-5.6950969 h 1.07813 z m 7.41504,1.242187525 H 128.3955 V -5.6950969 h 0.98437 z m 8.93848,0 h -0.9961 L 134.791,-4.0427531 V 2.15625e-4 h -0.99609 V -5.6950969 h 0.99609 l 2.54297,4.0546875 v -4.0546875 h 0.98438 z m 7.61133,-1.324218725 h -2.20313 l -0.45703,1.324218725 h -1.03125 L 144.3828,-5.6950969 h 0.89063 l 2.15625,5.695312525 h -1.03125 z m -1.92188,-0.796875 h 1.64063 l -0.82032,-2.3671875 z m 0,0" style="fill:#231f20;fill-opacity:1;fill-rule:nonzero;stroke:none" aria-label="BOSNA &amp; HERCEGOVINA" transform="matrix(1.3333333,0,0,1.3333333,195.59507,201.0544)"></path></g></svg>