<svg width="200" height="200" xmlns="http://www.w3.org/2000/svg">
  <rect width="200" height="200" fill="#f3f4f6"/>
  <rect x="30" y="40" width="140" height="120" fill="#1f2937" rx="4"/>
  <g fill="#374151">
    <rect x="35" y="45" width="25" height="25" rx="2"/>
    <rect x="65" y="45" width="25" height="25" rx="2"/>
    <rect x="95" y="45" width="25" height="25" rx="2"/>
    <rect x="125" y="45" width="25" height="25" rx="2"/>
    <rect x="155" y="45" width="10" height="25" rx="2"/>
    
    <rect x="35" y="75" width="25" height="25" rx="2"/>
    <rect x="65" y="75" width="25" height="25" rx="2"/>
    <rect x="95" y="75" width="25" height="25" rx="2"/>
    <rect x="125" y="75" width="25" height="25" rx="2"/>
    <rect x="155" y="75" width="10" height="25" rx="2"/>
    
    <rect x="35" y="105" width="25" height="25" rx="2"/>
    <rect x="65" y="105" width="25" height="25" rx="2"/>
    <rect x="95" y="105" width="25" height="25" rx="2"/>
    <rect x="125" y="105" width="25" height="25" rx="2"/>
    <rect x="155" y="105" width="10" height="25" rx="2"/>
    
    <rect x="35" y="135" width="25" height="20" rx="2"/>
    <rect x="65" y="135" width="25" height="20" rx="2"/>
    <rect x="95" y="135" width="25" height="20" rx="2"/>
    <rect x="125" y="135" width="25" height="20" rx="2"/>
    <rect x="155" y="135" width="10" height="20" rx="2"/>
  </g>
  <text x="100" y="180" text-anchor="middle" fill="#6b7280" font-family="Arial, sans-serif" font-size="12">Solar Panel</text>
</svg> 