<?xml version="1.0" encoding="UTF-8"?>
<svg xmlns="http://www.w3.org/2000/svg" width="171" height="85" viewBox="0 0 171 85" fill="none">
  <g id="Layer_1" clip-path="url(#clip0_602_1871)">
    <path id="Vector" d="M10.4056 80.1292H13.0112L12.3655 68.3415H8.88753L7.63002 72.2613C7.24483 73.5755 6.84266 75.1275 6.50846 76.4927H6.45748C6.19691 75.1105 5.82872 73.6434 5.46053 72.2783L4.30498 68.3415H0.753372L0 80.1292H2.46404L2.67362 75.6543C2.75859 74.1872 2.81523 72.3689 2.88321 70.7772H2.91719C3.19475 72.318 3.59693 73.9946 3.98211 75.3768L5.23962 79.9423H7.31847L8.75158 75.3428C9.20473 73.9607 9.69754 72.284 10.0657 70.7772H10.1167C10.1167 72.4936 10.1677 74.2042 10.2243 75.6203L10.3999 80.1349L10.4056 80.1292ZM22.0687 72.975H17.7297V70.528H22.3293V68.3415H15.0561V80.1292H22.5785V77.9428H17.7354V75.1445H22.0744V72.975H22.0687ZM34.5362 80.1292H37.1418L36.4961 68.3415H33.0181L31.7606 72.2613C31.3754 73.5755 30.9732 75.1275 30.639 76.4927H30.588C30.3275 75.1105 29.9593 73.6434 29.5911 72.2783L28.4356 68.3415H24.8839L24.1306 80.1292H26.5946L26.8042 75.6543C26.8892 74.1872 26.9458 72.3689 27.0138 70.7772H27.0478C27.3253 72.318 27.7275 73.9946 28.1127 75.3768L29.3702 79.9423H31.449L32.8821 75.3428C33.3353 73.9607 33.8281 72.284 34.1963 70.7772H34.2473C34.2473 72.4936 34.2983 74.2042 34.3549 75.6203L34.5305 80.1349L34.5362 80.1292ZM39.1867 80.0783C39.7814 80.1632 40.7614 80.2539 42.0699 80.2539C44.415 80.2539 45.8481 79.8687 46.7034 79.1889C47.4398 78.5942 47.9269 77.7558 47.9269 76.6909C47.9269 75.1672 46.93 74.1532 45.5818 73.7907V73.7567C46.913 73.2696 47.5248 72.2896 47.5248 71.2361C47.5248 70.1825 46.93 69.3668 46.1086 68.925C45.2533 68.4152 44.2564 68.2622 42.6307 68.2622C41.2995 68.2622 39.8834 68.3698 39.1867 68.5058V80.0839V80.0783ZM41.8263 70.2674C42.0529 70.2334 42.3871 70.1995 42.9649 70.1995C44.1714 70.1995 44.8511 70.6696 44.8511 71.5646C44.8511 72.4596 44.0978 73.0147 42.6986 73.0147H41.8263V70.2674ZM41.8263 74.9179H42.7383C44.0694 74.9179 45.1344 75.3881 45.1344 76.5776C45.1344 77.7672 44.0694 78.2713 42.8629 78.2713C42.4098 78.2713 42.0925 78.2713 41.832 78.2373V74.9123L41.8263 74.9179ZM56.7635 72.975H52.4245V70.528H57.024V68.3415H49.7509V80.1292H57.2733V77.9428H52.4302V75.1445H56.7691V72.975H56.7635ZM59.0916 80.1292H61.7312V75.4957H62.5356C63.6175 75.5127 64.1273 75.9149 64.4445 77.382C64.7957 78.8321 65.0732 79.795 65.2658 80.1292H67.9961C67.7695 79.6761 67.4013 78.1354 67.0331 76.8042C66.7386 75.7223 66.2798 74.9349 65.4584 74.6007V74.5498C66.4723 74.1816 67.5373 73.1506 67.5373 71.6439C67.5373 70.562 67.1521 69.735 66.4554 69.1799C65.617 68.5171 64.3935 68.2509 62.6432 68.2509C61.2271 68.2509 59.9526 68.3585 59.0916 68.4945V80.1236V80.1292ZM61.7312 70.3184C61.9238 70.2844 62.292 70.2334 62.9377 70.2334C64.1613 70.2504 64.8976 70.7942 64.8976 71.8761C64.8976 72.958 64.1103 73.5698 62.7791 73.5698H61.7312V70.3184ZM78.1864 68.1489C74.7085 68.1489 72.4483 70.7886 72.4483 74.3232C72.4483 77.8578 74.4932 80.3218 77.9938 80.3218C81.4945 80.3218 83.7829 77.9768 83.7829 74.1136C83.7829 70.8622 81.806 68.1489 78.1864 68.1489ZM78.1185 70.2674C79.9537 70.2674 80.9677 72.0857 80.9677 74.2042C80.9677 76.4927 79.9368 78.209 78.1355 78.209C76.3342 78.209 75.2692 76.5833 75.2692 74.2722C75.2692 71.9611 76.3172 70.2674 78.1185 70.2674ZM85.5332 80.1292H88.2069V75.3881H92.4382V73.2186H88.2069V70.528H92.7384V68.3415H85.5332V80.1292Z" fill="white"></path>
    <path id="Vector_2" d="M162.292 56.2368H169.027V17.0728H162.292V56.2368Z" fill="white"></path>
    <path id="Vector_3" d="M162.292 8.53633H169.033C169.973 7.67533 170.523 6.42349 170.523 4.93374C170.523 2.19214 168.41 0 165.663 0C162.916 0 160.803 2.19214 160.803 4.93374C160.803 6.42349 161.352 7.67533 162.292 8.53633Z" fill="white"></path>
    <path id="Vector_4" d="M138.077 56.2367H144.818V29.6081C146.54 25.5354 150.38 23.4225 154.612 23.4225C156.022 23.4225 157.274 23.5811 158.373 23.8927V16.9197C157.512 16.7611 156.572 16.6875 155.631 16.6875C151.241 16.6875 147.48 18.3359 144.818 21.7005V17.0783H138.077V56.2424V56.2367Z" fill="white"></path>
    <path id="Vector_5" d="M96.7031 56.2368H103.444V30.9394C104.854 25.847 108.615 22.7939 114.099 22.7939C120.211 22.7939 123.972 27.0252 123.972 32.7407V56.2368H130.712V32.3498C130.712 22.6353 124.442 16.4497 115.588 16.4497C111.046 16.4497 106.418 17.7809 103.444 21.542V17.0785H96.7031V56.2425V56.2368Z" fill="white"></path>
    <path id="Vector_6" d="M70.9189 56.8656C82.6727 56.8656 91.2147 47.9384 91.2147 36.6605C91.2147 25.3825 82.6727 16.4497 70.9189 16.4497C64.4162 16.4497 58.8537 19.1913 55.2454 23.502C52.8154 19.0384 48.4254 16.4497 42.71 16.4497C38.7109 16.4497 33.307 17.7809 29.6251 22.8732C27.195 18.8005 22.9637 16.4497 17.792 16.4497C13.8722 16.4497 9.6409 17.7809 6.7407 21.3834V17.0728H0V56.2368H6.7407V30.152C8.30975 25.5298 11.7537 22.7882 16.3023 22.7882C21.9441 22.7882 25.3144 27.0196 25.3144 32.735V56.2312H32.0551V32.3442C32.0551 31.874 32.0551 31.3246 31.9758 30.7751C33.4656 25.7621 36.7566 22.7882 41.6111 22.7882C47.2529 22.7882 50.5439 27.0196 50.5439 32.735V36.6491C50.5439 47.9271 59.0859 56.8543 70.9189 56.8543V56.8656ZM70.9189 50.5214C62.9264 50.5214 57.5168 44.4151 57.5168 36.6605C57.5168 28.9058 62.9264 22.7996 70.9189 22.7996C78.9115 22.7996 84.2417 28.9115 84.2417 36.6605C84.2417 44.4094 78.9115 50.5214 70.9189 50.5214Z" fill="white"></path>
    <path id="Vector_7" d="M103.093 74.8386L102.544 80.1349H99.1396L100.754 64.5859H106.634C108.65 64.5859 110.14 64.9994 111.097 65.8208C112.06 66.6421 112.457 67.8487 112.293 69.429C112.123 71.0831 111.409 72.3972 110.151 73.3772C108.894 74.3571 107.336 74.8443 105.478 74.8443H103.093V74.8386ZM103.886 67.0273L103.331 72.3746H104.238C105.948 72.3746 107.098 72.1367 107.704 71.6665C108.305 71.1964 108.656 70.4713 108.758 69.4914C108.843 68.687 108.639 68.0752 108.152 67.6561C107.665 67.2369 106.634 67.0273 105.053 67.0273H103.886Z" fill="white"></path>
    <path id="Vector_8" d="M122.177 80.1349H119.027L119.192 78.5772C118.138 79.4099 117.3 79.931 116.671 80.1349C116.048 80.3445 115.397 80.4521 114.711 80.4521C113.669 80.4521 112.836 80.1123 112.219 79.4325C111.601 78.7585 111.346 77.8805 111.46 76.8212C111.601 75.4731 112.213 74.4535 113.301 73.7511C114.388 73.0544 116.575 72.6239 119.86 72.4539L119.894 72.1311C119.973 71.3833 119.77 70.8396 119.288 70.5054C118.807 70.1655 117.974 69.9956 116.784 69.9956C115.969 69.9956 114.773 70.3071 113.199 70.9245H113.085L113.346 68.4152C114.983 68.03 116.45 67.8374 117.742 67.8374C119.758 67.8374 121.18 68.1603 122.007 68.8117C122.84 69.4574 123.18 70.494 123.032 71.9101L122.177 80.1236V80.1349ZM119.328 77.2234L119.639 74.2099C117.543 74.3798 116.218 74.6517 115.657 75.0086C115.096 75.3711 114.785 75.8696 114.717 76.5153C114.649 77.1951 114.779 77.6709 115.113 77.9371C115.453 78.2033 116.008 78.3393 116.784 78.3393C117.6 78.3393 118.45 77.9711 119.322 77.2234H119.328Z" fill="white"></path>
    <path id="Vector_9" d="M143.254 80.0613C142.387 80.2709 141.469 80.3729 140.506 80.3729C139.085 80.3729 138.071 80.0726 137.476 79.4609C136.875 78.8491 136.649 77.8635 136.79 76.504L137.436 70.2788H135.867L136.082 68.1829H137.663L138.014 64.8296H141.175L140.824 68.1829H144.488L144.273 70.2788H140.608L140.099 75.2012C139.968 76.4644 140.042 77.2914 140.325 77.6766C140.608 78.0618 141.135 78.2543 141.894 78.2543C142.381 78.2543 142.88 78.1354 143.384 77.8918H143.48L143.254 80.0556V80.0613Z" fill="white"></path>
    <path id="Vector_10" d="M167.974 80.135H164.785L165.402 74.1817C165.578 72.5163 165.498 71.4797 165.175 71.0776C164.847 70.6754 164.275 70.4771 163.448 70.4771C162.762 70.4771 161.901 70.783 160.865 71.3948L159.958 80.135H156.792L158.033 68.183H161.199L161.023 69.854C162.1 69.044 162.949 68.5059 163.572 68.2453C164.195 67.9848 164.83 67.8545 165.476 67.8545C167.996 67.8545 169.101 69.3329 168.795 72.2841L167.979 80.135H167.974Z" fill="white"></path>
    <path id="Vector_11" fill-rule="evenodd" clip-rule="evenodd" d="M136.088 68.1831L135.023 70.279H134.774H133.919L134.344 70.5962L134.723 70.8737L127.841 84.4401H124.499L126.765 80.1578L123.332 68.1831H126.77L128.895 76.7194L132.826 68.1831H136.088Z" fill="#ED1B2E"></path>
    <path id="Vector_12" d="M156.429 74.6517H147.955C147.848 77.0478 149.082 78.243 151.66 78.243C153.008 78.243 154.418 77.7559 155.88 76.7759H155.993L155.71 79.5175C154.028 80.1349 152.475 80.4465 151.054 80.4465C148.811 80.4465 147.157 79.9084 146.092 78.8491C145.027 77.7842 144.596 76.2435 144.8 74.2326C145.004 72.2387 145.723 70.6696 146.958 69.5254C148.187 68.3812 149.791 67.8091 151.745 67.8091C155.336 67.8091 156.939 69.718 156.543 73.5358L156.429 74.6461V74.6517ZM153.444 72.8618C153.631 70.8056 152.9 69.7746 151.252 69.7746C149.507 69.7746 148.465 70.8056 148.136 72.8618H153.438H153.444Z" fill="white"></path>
  </g>
  <defs>
    <clipPath id="clip0_602_1871">
      <rect width="170.517" height="84.44" fill="white"></rect>
    </clipPath>
  </defs>
</svg>
