<?xml version="1.0" encoding="UTF-8"?><svg id="Layer_1" xmlns="http://www.w3.org/2000/svg" viewBox="0 0 198 198"><defs><style>.cls-1{fill:#fff;}.cls-2{fill:#0056a7;}</style></defs><rect class="cls-1" width="198" height="198"/><rect class="cls-2" x="5.48" y="97.17" width="187.05" height="95.35"/><path class="cls-2" d="M78.88,27.68l-18.64,44.46h-12.16l-9.17-35.48c-.56-2.18-1.04-2.98-2.73-3.91-2.77-1.5-7.33-2.91-11.35-3.78l.27-1.29h19.57c2.49,0,4.74,1.66,5.31,4.53l4.84,25.73,11.97-30.26h12.08ZM126.52,57.63c.05-11.73-16.22-12.38-16.11-17.63.04-1.59,1.55-3.29,4.88-3.72,1.65-.21,6.19-.38,11.34,1.99l2.02-9.43c-2.77-1-6.33-1.96-10.76-1.96-11.37,0-19.37,6.04-19.43,14.7-.07,6.4,5.71,9.97,10.07,12.1,4.49,2.18,5.99,3.58,5.97,5.52-.03,2.98-3.58,4.3-6.88,4.35-5.79.09-9.14-1.56-11.81-2.81l-2.09,9.75c2.69,1.23,7.65,2.3,12.79,2.36,12.09,0,19.99-5.97,20.03-15.21M156.54,72.14h10.64l-9.29-44.46h-9.81c-2.21,0-4.07,1.28-4.9,3.26l-17.26,41.2h12.08l2.4-6.64h14.76l1.39,6.64ZM143.7,56.39l6.06-16.7,3.48,16.7h-9.54ZM95.31,27.68l-9.51,44.46h-11.5l9.51-44.46h11.5Z"/><path class="cls-1" d="M41.36,139.06c0-1.42.34-2.62,1.03-3.6.69-.98,1.63-1.73,2.82-2.23,1.19-.5,2.53-.75,4.03-.75,1.67,0,3,.16,4,.49.99.33,1.76.65,2.29.99l.27,3.72h-.09c-.49-.41-1.1-.78-1.81-1.09-.72-.31-1.48-.57-2.29-.75-.81-.19-1.6-.28-2.39-.28-1.24,0-2.24.2-3.01.6-.77.4-1.15,1.11-1.15,2.11,0,.77.18,1.37.55,1.8.36.43.91.79,1.64,1.06s1.63.56,2.71.86c1.02.28,1.98.56,2.88.84.89.29,1.68.66,2.35,1.12.67.46,1.19,1.07,1.58,1.83.38.76.58,1.73.58,2.91,0,2.28-.74,4.03-2.23,5.24-1.49,1.21-3.56,1.81-6.24,1.81-1.34,0-2.68-.18-4.04-.55-1.36-.36-2.46-.85-3.3-1.46l-.24-3.75h.09c.98.83,2.16,1.48,3.54,1.95,1.38.47,2.76.71,4.16.71,2.97,0,4.45-1.02,4.45-3.07,0-.73-.17-1.32-.5-1.77-.33-.45-.88-.83-1.62-1.14-.75-.3-1.72-.61-2.92-.93-.94-.25-1.84-.53-2.68-.83-.85-.3-1.6-.68-2.27-1.15-.67-.47-1.19-1.08-1.58-1.83-.38-.75-.58-1.7-.58-2.86Z"/><path class="cls-1" d="M60.27,155.32v-22.42h14.45v3.25h-10.5v5.99h8.29v3.13h-8.29v6.81h10.5v3.25h-14.45Z"/><path class="cls-1" d="M80.71,144.11c0,1.69.31,3.17.93,4.42.62,1.26,1.51,2.23,2.67,2.92,1.16.69,2.56,1.03,4.19,1.03s3.06-.25,4.16-.75c1.1-.5,2.06-1.16,2.89-1.96h.09l-.41,3.92c-.87.59-1.89,1.08-3.07,1.46s-2.56.58-4.13.58c-1.77,0-3.36-.3-4.76-.9-1.41-.6-2.61-1.43-3.6-2.48-.99-1.05-1.75-2.29-2.27-3.7-.52-1.42-.78-2.93-.78-4.54s.26-3.15.78-4.56c.52-1.41,1.28-2.64,2.27-3.69.99-1.05,2.19-1.88,3.58-2.48,1.4-.6,2.97-.9,4.72-.9,1.57,0,2.93.16,4.07.49,1.14.33,2.11.79,2.92,1.4l.41,4.01h-.09c-.83-.81-1.8-1.45-2.92-1.93-1.12-.48-2.43-.72-3.92-.72-1.63,0-3.02.34-4.17,1.03-1.15.69-2.03,1.66-2.64,2.92-.61,1.26-.91,2.73-.91,4.42Z"/><path class="cls-1" d="M108.12,152.37c2.03,0,3.5-.44,4.42-1.31.92-.88,1.39-2.36,1.39-4.47v-13.69h3.3v13.89c0,3.15-.79,5.42-2.38,6.83-1.58,1.41-3.89,2.11-6.92,2.11s-5.35-.7-7.02-2.09c-1.67-1.4-2.51-3.68-2.51-6.84v-13.89h3.95v13.6c0,2.1.45,3.61,1.34,4.51.89.9,2.36,1.36,4.41,1.36Z"/><path class="cls-1" d="M121.1,155.32v-22.42h9.47c1.47,0,2.75.29,3.82.88,1.07.59,1.89,1.4,2.46,2.43.57,1.03.86,2.2.86,3.5,0,1.53-.42,2.87-1.27,4.01-.85,1.14-2,1.9-3.45,2.27l5.75,9.32h-4.54l-5.19-8.79h-3.95v8.79h-3.95ZM129.51,136.02h-4.46v7.55h4.46c1.43,0,2.47-.31,3.11-.93.64-.62.96-1.57.96-2.85s-.32-2.23-.96-2.85c-.64-.62-1.68-.93-3.11-.93Z"/><path class="cls-1" d="M141.69,155.32v-22.42h14.46v3.25h-10.5v5.99h8.29v3.13h-8.29v6.81h10.5v3.25h-14.46Z"/></svg>